<?xml version="1.0" standalone="no"?><!DOCTYPE svg PUBLIC "-//W3C//DTD SVG 1.1//EN" "http://www.w3.org/Graphics/SVG/1.1/DTD/svg11.dtd"><svg t="1699967495089" class="icon" viewBox="0 0 1024 1024" version="1.1" xmlns="http://www.w3.org/2000/svg" p-id="12015" xmlns:xlink="http://www.w3.org/1999/xlink" width="200" height="200"><path d="M393.844625 290.899607c0-5.370699 13.426747-8.056048 42.965591-8.056049s45.65094 5.370699 51.021639 18.797446" fill="#FFFFFF" p-id="12016"></path><path d="M23.266404 946.124867c-2.685349 0-2.685349-2.685349-2.685349-5.370699 5.370699-29.538844 53.706989-236.310749 99.357929-306.129835 34.909543-48.33629 110.099326-83.245832 225.569352-102.043278 155.750267-13.426747 265.849593-16.112097 327.61263-5.370699 107.413977 16.112097 228.254701 77.875133 260.478894 155.750267 32.224193 75.189784 72.504434 161.120966 75.189784 244.366798 0 2.685349 0 2.685349-2.68535 5.370699-24.168145 8.056048-147.694218 77.875133-161.120965 83.245832H176.331322L23.266404 946.124867z" fill="#4D4D4D" p-id="12017"></path><path d="M20.581055 951.495566l153.064917 69.819085h671.337357c2.685349-2.685349 16.112097-8.056048 42.965591-21.482796 67.133736-37.594892 107.413977-56.392338 118.155374-61.763037 5.370699-2.685349 8.056048-5.370699 5.370699-10.741397 0-32.224193-8.056048-69.819085-21.482795-112.784676-8.056048-24.168145-21.482795-61.763037-42.965591-110.099327-5.370699-10.741398-8.056048-18.797446-10.741398-24.168145-16.112097-37.594892-51.021639-72.504434-104.728627-102.043278-51.021639-26.853494-102.043278-45.65094-161.120966-56.392338-64.448386-10.741398-171.862363-8.056048-330.297979 5.370699-118.155375 18.797446-193.345159 53.706989-228.254701 104.728628-18.797446 29.538844-42.965591 85.931182-64.448387 169.177014-13.426747 48.33629-24.168145 93.98723-34.909542 136.95282 0 8.056048 2.685349 10.741398 8.056048 13.426748z m158.435616 59.077687L25.951754 943.439517c10.741398-45.65094 21.482795-88.616531 34.909542-136.95282 24.168145-80.560483 45.65094-136.952821 64.448387-166.491665 32.224193-48.33629 107.413977-80.560483 220.198653-99.357929 155.750267-13.426747 263.164244-16.112097 324.92728-5.370699 56.392338 8.056048 107.413977 26.853494 158.435616 53.706989 51.021639 29.538844 85.931182 61.763037 99.357929 96.672579 2.685349 5.370699 5.370699 13.426747 10.741398 24.168145 21.482795 48.33629 34.909543 83.245832 42.965591 107.413977 13.426747 40.280241 21.482795 77.875133 21.482795 110.099327-10.741398 5.370699-51.021639 24.168145-118.155375 61.763036-24.168145 13.426747-37.594892 18.797446-40.280241 21.482796H179.016671z" p-id="12018"></path><path d="M173.645972 768.891805c-21.482795 26.853494-40.280241 56.392338-56.392338 88.616531-13.426747 37.594892-24.168145 75.189784-34.909542 115.470025l91.30188 37.594892v-241.681448z" opacity=".1" p-id="12019"></path><path d="M179.016671 1018.629301L20.581055 948.810216c-2.685349 0-2.685349-2.685349-2.685349-2.685349 0-2.685349 2.685349-2.685349 2.685349 0l155.750267 67.133735-5.370699-260.478894c0-2.685349 0-2.685349 2.685349-2.685349s2.685349 0 2.68535 2.685349l5.370699 265.849593c0-2.685349 0 0-2.68535 0zM844.983329 1018.629301c-2.685349 0-2.685349-2.685349-2.68535-2.685349l-5.370698-281.96169c0-2.685349 0-2.685349 2.685349-2.685349s2.685349 0 2.685349 2.685349l5.370699 276.590991 158.435616-83.245832h2.68535v2.685349l-163.806315 88.616531zM506.629301 666.848526c-34.909543 2.685349-69.819085-10.741398-96.672579-34.909542-18.797446-18.797446-29.538844-40.280241-37.594892-67.133736-2.685349-10.741398-5.370699-24.168145-5.370699-34.909542h5.370699c0 10.741398 2.685349 24.168145 5.370699 34.909542 5.370699 24.168145 18.797446 45.65094 34.909542 64.448386 26.853494 24.168145 59.077687 34.909543 96.67258 32.224194 48.33629 2.685349 96.672579-24.168145 118.155374-69.819086 10.741398-21.482795 16.112097-42.965591 16.112097-67.133735h5.370699c0 24.168145-5.370699 48.33629-16.112097 69.819085-8.056048 18.797446-24.168145 37.594892-40.280241 48.33629-24.168145 16.112097-51.021639 24.168145-80.560483 24.168144h-5.370699z" p-id="12020"></path><path d="M815.444485 900.473926c-2.685349 0-2.685349 0 0 0-2.685349-2.685349 0-5.370699 0-5.370698 37.594892-10.741398 51.021639-102.043278 51.021639-102.043279 0-2.685349 0-2.685349 2.68535-2.685349s2.685349 2.685349 2.685349 2.685349c-2.685349 16.112097-5.370699 32.224193-10.741398 48.33629-13.426747 34.909543-26.853494 53.706989-45.65094 59.077687z" p-id="12021"></path><path d="M399.215324 433.223126c2.685349 48.33629 5.370699 85.931182 5.370699 112.784676 5.370699 51.021639 48.33629 91.30188 99.357929 93.98723 48.33629 0 112.784676-40.280241 115.470025-99.357929 2.685349-40.280241 2.685349-75.189784 0-104.728627l-220.198653-2.68535z" fill="#FEDEC9" p-id="12022"></path><path d="M501.258602 639.995032c-24.168145 0-48.33629-10.741398-67.133735-29.538844-18.797446-16.112097-29.538844-40.280241-32.224193-67.133735-2.685349-37.594892-5.370699-110.099326-5.370699-112.784676v-2.68535h225.569351v110.099327c-2.685349 29.538844-16.112097 56.392338-40.280241 72.504434-21.482795 16.112097-48.33629 26.853494-77.875133 29.538844h-2.68535z m-99.357928-204.086556c0 13.426747 2.685349 75.189784 5.370698 110.099326 5.370699 48.33629 45.65094 85.931182 93.98723 91.301881h2.68535c42.965591-2.685349 110.099326-37.594892 112.784676-96.67258 2.685349-48.33629 0-91.30188 0-104.728627h-214.827954z" p-id="12023"></path><path d="M412.642071 476.188717c10.741398 26.853494 26.853494 48.33629 45.65094 69.819085 16.112097 10.741398 37.594892 13.426747 56.392338 10.741398 21.482795-2.685349 16.112097 0 26.853495-2.68535s59.077687-26.853494 72.504434-64.448386c8.056048-26.853494-59.077687-32.224193-201.401207-13.426747zM689.233062 532.581055c53.706989 51.021639 80.560483 102.043278 80.560483 155.750267 0 80.560483-21.482795 153.064917-69.819085 193.345158 32.224193 40.280241 48.33629 91.30188 42.965591 142.32352l187.974459-2.685349h72.504435l-10.741398-5.370699c-5.370699-24.168145-8.056048-48.33629-10.741397-72.504435 0-5.370699 32.224193-10.741398 29.538843-13.426747-13.426747-91.30188-40.280241-179.918412-77.875133-263.164244-51.021639-67.133736-131.582122-112.784676-244.366798-134.267471z" opacity=".1" p-id="12024"></path><path d="M673.120966 258.675414c18.797446-13.426747 32.224193-13.426747 40.280241-2.68535 16.112097 16.112097-5.370699 67.133736-24.168145 88.616531-8.056048 8.056048-16.112097 13.426747-26.853494 18.797446l10.741398-104.728627z" fill="#FEDEC9" p-id="12025"></path><path d="M657.008869 366.089391l13.426747-110.099327 16.112097-8.056048c10.741398-2.685349 21.482795-2.685349 29.538843 8.056048 16.112097 18.797446-5.370699 69.819085-24.168144 91.301881-8.056048 8.056048-16.112097 13.426747-26.853495 18.797446h-8.056048z m18.797446-107.413977l-10.741398 96.672579c8.056048-5.370699 16.112097-10.741398 21.482796-16.112097 18.797446-21.482795 37.594892-69.819085 24.168145-83.245832-5.370699-5.370699-16.112097-8.056048-24.168145-5.370699-2.685349 5.370699-5.370699 5.370699-10.741398 8.056049z" p-id="12026"></path><path d="M345.508336 261.360763c-18.797446-10.741398-32.224193-10.741398-40.280242 0-16.112097 18.797446 10.741398 64.448386 29.538844 83.245832 8.056048 8.056048 18.797446 13.426747 29.538844 18.797446l-18.797446-102.043278z" fill="#FEDEC9" p-id="12027"></path><path d="M366.991131 368.77474l-5.370699-2.685349c-10.741398-5.370699-21.482795-10.741398-29.538844-18.797446-18.797446-21.482795-45.65094-69.819085-29.538843-88.616531 8.056048-8.056048 18.797446-10.741398 29.538843-8.056049 5.370699 2.685349 10.741398 2.685349 16.112097 8.056049l18.797446 110.099326z m-32.224193-24.168145l24.168145 16.112097-16.112097-96.67258c-5.370699-2.685349-26.853494-13.426747-37.594892 0s10.741398 59.077687 29.538844 80.560483z" p-id="12028"></path><path d="M541.538844 535.266404H485.146506c-34.909543-10.741398-96.672579-75.189784-112.784676-139.63817-10.741398-45.65094-18.797446-88.616531-26.853494-131.582122l-2.68535-83.245832 16.112097-56.392338 107.413977-53.706988 134.267471-2.68535 64.448386 45.650941 13.426747 104.728627-13.426747 91.301881c-5.370699 53.706989-8.056048 88.616531-13.426747 102.043278-8.056048 26.853494-21.482795 48.33629-40.280241 67.133736-24.168145 34.909543-51.021639 53.706989-69.819085 56.392337z" fill="#FEDEC9" p-id="12029"></path><path d="M673.120966 116.351894l-69.819086-48.33629-136.95282 2.68535-112.784676 53.706988-16.112097 59.077688 2.68535 83.245832c0 5.370699 8.056048 48.33629 26.853494 131.582122 8.056048 34.909543 24.168145 67.133736 48.33629 93.98723 16.112097 24.168145 37.594892 40.280241 64.448386 51.021639H538.853494c5.370699 0 13.426747-2.685349 24.168145-8.056049 18.797446-10.741398 34.909543-24.168145 53.706989-45.65094 18.797446-18.797446 34.909543-42.965591 40.280241-69.819085 2.685349-8.056048 5.370699-26.853494 8.056048-56.392338 2.685349-26.853494 5.370699-40.280241 5.370699-45.65094l13.426747-91.30188-10.741397-110.099327z m-187.97446 416.229161c-18.797446-5.370699-37.594892-21.482795-61.763037-48.33629-24.168145-29.538844-40.280241-59.077687-45.65094-88.616531-2.685349-10.741398-5.370699-26.853494-10.741398-51.021639-10.741398-51.021639-16.112097-77.875133-16.112097-80.560483l-2.685349-80.560482 16.112097-51.021639 104.728627-53.706989 131.582122-2.685349 61.763037 45.65094 13.426747 99.357929-13.426747 91.30188c0 2.685349-2.685349 16.112097-5.370699 42.965591-2.685349 29.538844-5.370699 48.33629-8.056048 56.392338-5.370699 24.168145-18.797446 45.65094-37.594892 64.448386-18.797446 24.168145-42.965591 42.965591-72.504435 53.706989h-53.706988z" p-id="12030"></path><path d="M670.435616 288.214257c5.370699-13.426747 13.426747-18.797446 18.797446-18.797446h13.426747v2.68535h-13.426747c-8.056048 0-16.112097 13.426747-18.797446 16.112096zM544.224193 272.102161c18.797446-13.426747 40.280241-24.168145 64.448386-29.538844 13.426747 0 29.538844 5.370699 40.280242 13.426747 2.685349 5.370699-21.482795 2.685349-40.280242 5.370699-26.853494 5.370699-45.65094 8.056048-48.336289 10.741398h-16.112097zM490.517205 266.731462c-21.482795-10.741398-42.965591-21.482795-64.448387-26.853494-13.426747 0-29.538844 5.370699-40.280241 16.112096-2.685349 5.370699 21.482795 0 40.280241 2.68535 26.853494 5.370699 45.65094 8.056048 48.33629 8.056048h16.112097z" p-id="12031"></path><path d="M640.896772 285.528908c0-5.370699-13.426747-8.056048-42.96559-8.056048-26.853494 0-42.965591 8.056048-48.33629 21.482795 13.426747 5.370699 29.538844 8.056048 42.965591 5.370699 18.797446 0 34.909543-8.056048 48.336289-18.797446z" fill="#FFFFFF" p-id="12032"></path><path d="M549.594892 301.641004c5.370699-16.112097 21.482795-21.482795 51.021639-21.482795 16.112097-2.685349 29.538844 0 42.965591 5.370699v2.685349c-2.685349-2.685349-16.112097-5.370699-42.965591-5.370699-42.965591 0-48.33629 18.797446-48.33629 18.797446h-2.685349c2.685349 2.685349 2.685349 0 0 0z" p-id="12033"></path><path d="M598.589073 274.502481a18.797446 13.426747 3.41 1 0-1.597262 26.805949 18.797446 13.426747 3.41 1 0 1.597262-26.805949Z" p-id="12034"></path><path d="M514.685349 400.998933c-2.685349 0-16.112097-13.426747-16.112096-18.797446s10.741398-56.392338 13.426747-61.763037l-2.685349-26.853494h2.685349l5.370699 26.853494c-5.370699 18.797446-13.426747 56.392338-13.426747 61.763037-5.370699 2.685349 5.370699 13.426747 10.741397 18.797446 0-2.685349 0-2.685349 0 0zM512 438.593825c-16.112097 0-29.538844-2.685349-45.65094-8.056048v-2.68535h2.685349c13.426747 8.056048 29.538844 10.741398 42.965591 10.741398s26.853494-2.685349 37.594892-8.056048h2.685349v2.685349c-10.741398 5.370699-26.853494 8.056048-40.280241 5.370699z" p-id="12035"></path><path d="M501.258602 449.335223c5.370699 2.685349 8.056048 2.685349 13.426747 2.685349 8.056048 0 5.370699 0 0 0h8.056049" fill="#FFFFFF" p-id="12036"></path><path d="M512 452.020572c-2.685349 0-8.056048 0-10.741398-2.685349v-2.68535h2.68535c5.370699 0 8.056048 2.685349 13.426747 2.68535H525.426747s2.685349 0 2.68535 2.685349H512zM667.750267 274.78751c-5.370699-24.168145-13.426747-45.65094-24.168145-64.448386-8.056048-21.482795-10.741398-45.65094-8.056048-67.133736 0-2.685349 0-2.685349-2.68535-2.685349l-26.853494-8.056048h-2.68535l-2.685349 2.685349V137.834689c0 2.685349-2.685349 5.370699-5.370699 2.68535l-37.594892-8.056048c-2.685349 0-5.370699 0-5.370699 2.685349V137.834689c0 2.685349-2.685349 5.370699-5.370698 2.68535-8.056048-2.685349-16.112097-2.685349-21.482796-5.370699-5.370699 0-10.741398 2.685349-10.741398 2.685349 0 2.685349-2.685349 5.370699-5.370698 2.68535l-29.538844-8.056048c-2.685349 0-5.370699 0-8.056048 2.685349v8.056048c0 2.685349-2.685349 2.685349-5.370699 2.68535l-16.112097-10.741398h-5.370699l-13.426747 13.426747c-2.685349 2.685349-5.370699 2.685349-5.370699 0s-2.685349-5.370699-2.685349-8.056048l-2.685349-2.68535c-2.685349-2.685349-5.370699-2.685349-5.370699 0l-24.168145 21.482796h-5.370699l-8.056048-2.68535c-2.685349 0-5.370699 0-5.370699 2.68535 0 21.482795-2.685349 42.965591-8.056048 64.448386-5.370699 8.056048-8.056048 18.797446-10.741398 26.853494v8.056049c0 2.685349-2.685349 2.685349-2.68535 2.685349-2.685349 0-2.685349 0-2.685349-2.685349-18.797446-75.189784-24.168145-123.526074-21.482795-139.638171v-2.685349c5.370699-16.112097 13.426747-29.538844 21.482795-42.965591v-5.370699c2.685349-5.370699 5.370699-10.741398 8.056048-13.426747l21.482796-8.056048 42.965591-13.426747h2.685349c29.538844-16.112097 64.448386-26.853494 96.672579-32.224193 32.224193-2.685349 88.616531 0 110.099327 18.797446 16.112097 13.426747 24.168145 42.965591 40.280241 48.336289 13.426747 8.056048 24.168145 18.797446 32.224193 32.224194 8.056048 13.426747 10.741398 26.853494 13.426747 42.96559-2.685349 5.370699-2.685349 10.741398-5.370698 16.112097 0 5.370699-26.853494 83.245832-34.909543 110.099326 0 2.685349-2.685349 2.685349-2.685349 2.68535-2.685349 5.370699-5.370699 5.370699-5.370699 2.685349z" p-id="12037"></path><path d="M576.448386 148.576087c10.741398 16.112097 18.797446 32.224193 21.482796 51.021639 0 16.112097-2.685349 34.909543-5.370699 51.021639v18.797446c8.056048 2.685349 10.741398 5.370699 10.741397 10.741398 0 2.685349-2.685349 8.056048-5.370698 8.056048 21.482795 29.538844 32.224193 64.448386 32.224193 99.357929-2.685349 37.594892-21.482795 80.560483-56.392338 128.896773 42.965591-32.224193 67.133736-59.077687 75.189784-85.931182 5.370699-26.853494 16.112097-83.245832 29.538843-174.547713l-21.482795-72.504434-16.112097-48.33629-112.784675-16.112097 48.336289 29.538844z" opacity=".07" p-id="12038"></path><path d="M689.185163 274.91335a10.741398 21.482795 27.2 1 0-19.639482 38.2143 10.741398 21.482795 27.2 1 0 19.639482-38.2143Z" opacity=".1" p-id="12039"></path><path d="M348.193685 293.584956c-5.370699-10.741398-13.426747-16.112097-18.797446-16.112096h-13.426747v-2.68535c0-2.685349 0-2.685349 13.426747 0s18.797446 18.797446 18.797446 18.797446c2.685349 0 2.685349 0 0 0z" p-id="12040"></path><path d="M350.700036 285.783871a21.482795 10.741398 62.8 1 0-19.10715 9.819741 21.482795 10.741398 62.8 1 0 19.10715-9.819741Z" opacity=".1" p-id="12041"></path><path d="M597.931182 288.214257a5.370699 2.685349 0 1 0 10.741397 0 5.370699 2.685349 0 1 0-10.741397 0Z" fill="#FFFFFF" p-id="12042"></path><path d="M396.529975 285.528908c0-2.685349 13.426747-2.685349 42.965591-2.68535 26.853494 0 42.965591 5.370699 48.336289 18.797446-13.426747 5.370699-26.853494 8.056048-42.965591 8.056049-21.482795 0-37.594892-8.056048-48.336289-24.168145z" fill="#FFFFFF" p-id="12043"></path><path d="M485.146506 301.641004c-5.370699-13.426747-21.482795-18.797446-48.33629-18.797446-37.594892 0-42.965591 5.370699-42.965591 5.370699h-2.685349-2.68535c-2.685349 0 0 0 0-2.685349 13.426747-5.370699 29.538844-8.056048 42.965591-5.370699 48.33629 0 53.706989 21.482795 53.706989 21.482795z" p-id="12044"></path><path d="M453.617902 291.693279a13.426747 18.797446 86.59 1 0-37.528329 2.236167 13.426747 18.797446 86.59 1 0 37.528329-2.236167Z" p-id="12045"></path><path d="M428.754168 288.214257a5.370699 2.685349 0 1 0 10.741398 0 5.370699 2.685349 0 1 0-10.741398 0Z" fill="#FFFFFF" p-id="12046"></path><path d="M850.354028 1007.887903l147.694218-72.504434c5.370699 26.853494 5.370699 42.965591 8.056048 48.33629 0 5.370699 0 16.112097 2.68535 32.224193h-161.120966l2.68535-8.056049z" fill="#FEDEC9" p-id="12047"></path><path d="M1014.160343 1021.314651l-2.68535-5.370699c0-8.056048 0-18.797446-2.685349-29.538844 0-2.685349-2.685349-16.112097-5.370699-34.909542-2.685349-8.056048-2.685349-13.426747-2.685349-13.426748v-8.056048l-155.750267 75.189784-5.370699 5.370699-5.370699 2.685349h5.370699l-5.370699 8.056049h179.918412z m-13.426747-13.426748H861.095425l131.582122-64.448386c0 2.685349 0 8.056048 2.68535 13.426747 2.685349 16.112097 2.685349 24.168145 5.370699 26.853495v24.168144z" p-id="12048"></path><path d="M170.960623 1007.887903l-136.952821-56.392337h-2.685349c-5.370699 16.112097-8.056048 29.538844-10.741398 45.65094 0 5.370699-2.685349 10.741398-5.370699 13.426747v2.685349h153.064917l2.68535-5.370699z" fill="#FEDEC9" p-id="12049"></path><path d="M173.645972 1005.202554L28.637103 946.124867v5.370699c-2.685349 16.112097-5.370699 32.224193-10.741397 45.65094-2.685349 5.370699-5.370699 10.741398-8.056049 13.426747V1018.629301H179.016671v-5.370699l-5.370699-8.056048z m-147.694218 2.685349c0-2.685349 2.685349-5.370699 2.685349-8.056048 0-2.685349 2.685349-10.741398 5.370699-26.853494 0-5.370699 2.685349-10.741398 2.68535-13.426747l120.840724 48.336289H25.951754c-2.685349 0-2.685349 0 0 0z" p-id="12050"></path></svg>